<svg width="294" height="294" viewBox="0 0 294 294" fill="none" xmlns="http://www.w3.org/2000/svg">
<rect width="294" height="294" fill="black"/>
<path fill-rule="evenodd" clip-rule="evenodd" d="M236 155.5C236 141.693 224.681 130.5 210.718 130.5H124.251C117.27 130.5 111.61 136.096 111.61 143V143C111.61 149.904 117.27 155.5 124.251 155.5H183.412V155.5C185.838 155.5 187.053 158.4 185.338 160.096L154.59 190.5L123.843 220.904C120.867 223.847 116.83 225.5 112.621 225.5V225.5H96.9463C91.3611 225.5 86.8333 221.023 86.8333 215.5V58.75C86.8333 50.6038 80.1549 44 71.9167 44V44C63.6784 44 57 50.6038 57 58.75V215C57 234.882 73.2999 251 93.4068 251H199.593C219.7 251 236 234.882 236 215V155.5V155.5ZM206.167 225.5C207.842 225.5 209.201 224.157 209.201 222.5V173.516C209.201 170.806 205.854 169.485 203.967 171.45L156.927 220.434C155.092 222.345 156.462 225.5 159.127 225.5H206.167Z" fill="#FFC107"/>
</svg>
