<svg width="25" height="24" viewBox="0 0 25 24" fill="none" xmlns="http://www.w3.org/2000/svg">
<path fill-rule="evenodd" clip-rule="evenodd" d="M10.8354 8.18837C11.5509 7.68027 12.3563 7.66341 13.0117 7.72211C13.2258 7.74128 13.6935 7.78496 14.0578 8.07004C14.2349 8.20869 14.3253 8.41711 14.3205 8.62595C14.5013 8.62168 14.6834 8.68851 14.8213 8.82645C14.954 8.95916 15.1127 9.08419 15.3007 9.22252C15.614 9.45309 15.8355 9.77194 15.9927 10.0476C16.1506 10.3246 16.2746 10.6155 16.366 10.8297L16.3697 10.8385C16.5853 11.3441 16.7569 11.9034 16.7569 12.5325C16.7569 12.8743 16.6925 13.2468 16.6426 13.5358C16.6268 13.6275 16.6124 13.7108 16.602 13.7821C16.5425 14.1889 16.3394 14.5267 16.1426 14.7791C15.9432 15.0349 15.7106 15.2528 15.5319 15.4139C15.0442 15.8539 14.3813 16.1454 13.9149 16.3464C13.3741 16.5795 12.7943 16.5726 12.3842 16.5677C12.3291 16.567 12.2772 16.5664 12.2288 16.5664C12.1668 16.5664 12.101 16.5671 12.032 16.5679C11.6294 16.5723 11.1187 16.578 10.6243 16.4473C10.0398 16.2927 9.37346 16.0493 8.93384 15.3142C8.34753 14.3338 8.28755 13.3626 8.30157 12.4097C8.32914 10.5348 9.50981 9.12974 10.8354 8.18837ZM13.6518 9.29464C13.4994 9.29836 13.3449 9.2515 13.2152 9.15076C13.2143 9.15041 13.1942 9.13813 13.1392 9.12408C13.0738 9.10738 12.9927 9.09627 12.8895 9.08702C12.3307 9.03698 11.9374 9.08656 11.6289 9.30568C10.4787 10.1224 9.69026 11.1739 9.6718 12.4298C9.65878 13.3151 9.72508 13.9673 10.11 14.6109C10.2653 14.8706 10.483 14.9925 10.9746 15.1224C11.2751 15.2019 11.5745 15.1998 11.9808 15.1971C12.0592 15.1966 12.1416 15.196 12.2288 15.196C12.288 15.196 12.3444 15.1962 12.3983 15.1964C12.8447 15.1979 13.1154 15.1988 13.3725 15.0879C13.8671 14.8748 14.3198 14.6618 14.6141 14.3963C14.7825 14.2444 14.94 14.0929 15.0617 13.9367C15.186 13.7772 15.2348 13.6605 15.246 13.5838C15.2678 13.4349 15.2901 13.306 15.3103 13.189C15.353 12.9422 15.3865 12.7486 15.3865 12.5325C15.3865 12.1577 15.2857 11.7901 15.1092 11.3761C15.0135 11.1517 14.9172 10.9281 14.8021 10.7262C14.6841 10.5192 14.5769 10.3913 14.4885 10.3263C14.2876 10.1784 14.0607 10.0039 13.8523 9.79545C13.7144 9.65751 13.6475 9.47539 13.6518 9.29464Z" fill="white"/>
<path fill-rule="evenodd" clip-rule="evenodd" d="M13.4302 9.31095C13.4302 8.93253 13.737 8.62576 14.1154 8.62576H14.3369C14.7153 8.62576 15.022 8.93253 15.022 9.31095C15.022 9.68937 14.7153 9.99614 14.3369 9.99614H14.1154C13.737 9.99614 13.4302 9.68937 13.4302 9.31095Z" fill="white"/>
<path fill-rule="evenodd" clip-rule="evenodd" d="M12.7172 5.00452C12.8524 5.00654 12.9818 5.00847 13.1024 5.00847C13.192 5.00847 13.2883 5.00697 13.3898 5.0054C13.8698 4.99794 14.4669 4.98867 15.0262 5.12691C15.8136 5.32152 16.6124 5.57385 17.3691 5.87534C18.5321 6.33874 19.3389 7.05368 20.0017 8.0773L20.0139 8.09612C20.4255 8.73169 21.022 9.65282 21.1479 10.6303C21.275 11.6176 20.9328 12.55 20.5194 13.2818C20.2119 13.826 19.7904 14.4942 19.0571 14.8937C18.2821 15.316 17.2648 15.4031 16.4304 14.8303C15.6729 14.3103 15.2905 13.4182 15.1126 12.7229C15.0565 12.5035 15.0183 12.2868 14.9853 12.0956C14.983 12.0823 14.9808 12.0691 14.9785 12.0561C14.9471 11.8739 14.9199 11.7157 14.8836 11.5607C14.8651 11.4815 14.8374 11.3971 14.7978 11.2827C14.794 11.2715 14.7899 11.26 14.7858 11.248C14.751 11.1481 14.7073 11.0223 14.6722 10.8931C14.5731 10.5279 14.7888 10.1515 15.154 10.0524C15.5192 9.95325 15.8956 10.169 15.9947 10.5342C16.0166 10.6146 16.0442 10.6944 16.0813 10.8014C16.085 10.8121 16.0889 10.823 16.0927 10.8343C16.1323 10.9484 16.1816 11.093 16.218 11.2487C16.264 11.4452 16.2978 11.6422 16.3278 11.8164C16.3305 11.832 16.3331 11.8474 16.3358 11.8626C16.3691 12.0557 16.3992 12.223 16.4402 12.3833C16.5869 12.9566 16.8541 13.459 17.2059 13.7005C17.5208 13.9166 17.9692 13.9259 18.4016 13.6903C18.7686 13.4904 19.031 13.1303 19.3263 12.6077C19.6687 12.0015 19.8624 11.3777 19.7887 10.8052C19.7085 10.1819 19.3008 9.51619 18.8514 8.82215C18.3263 8.01116 17.7338 7.49579 16.8619 7.14839C16.1672 6.87162 15.4284 6.63791 14.6974 6.45726C14.3266 6.36562 13.9497 6.37019 13.4816 6.37587C13.3617 6.37732 13.2357 6.37885 13.1024 6.37885C12.9365 6.37885 12.7802 6.3765 12.6302 6.37424C12.2806 6.36899 11.9646 6.36424 11.6387 6.39092C11.1212 6.43329 10.6059 6.53525 10.0532 6.64462C9.92148 6.67069 9.78761 6.69718 9.65108 6.72338C9.26172 6.7981 8.85269 6.95794 8.44994 7.15565C8.4286 7.16612 8.4078 7.17632 8.38751 7.18626C8.05107 7.35114 7.85565 7.44691 7.70093 7.60391C7.00113 8.31401 6.43975 9.23567 6.11881 10.183C6.04823 10.3913 5.99607 10.6159 5.94323 10.8702C5.93177 10.9254 5.92009 10.983 5.90807 11.0423C5.86735 11.2432 5.8227 11.4635 5.7691 11.6753C5.58353 12.4088 5.52103 13.1389 5.53965 13.921C5.55104 14.3992 5.61158 14.8579 5.74332 15.286C5.8605 15.6669 6.01745 16.0092 6.19245 16.3908C6.28514 16.593 6.38289 16.8062 6.48248 17.0419C6.61187 17.3483 6.81339 17.6198 7.05902 17.9507C7.13996 18.0598 7.2257 18.1753 7.31522 18.3006C7.62667 18.7366 7.89604 19.0853 8.23427 19.3441C9.04944 19.968 10.1538 20.3638 11.2159 20.505C12.3927 20.6616 13.4029 20.7283 14.346 20.3495C14.9839 20.0933 15.5674 19.7824 16.1956 19.4477C16.3763 19.3515 16.5607 19.2532 16.7511 19.1538C17.3213 18.8559 17.8377 18.5306 18.3814 18.188C18.6752 18.0029 18.977 17.8127 19.2996 17.6192C19.6241 17.4245 20.045 17.5297 20.2397 17.8542C20.4344 18.1787 20.3292 18.5996 20.0047 18.7943C19.7366 18.9551 19.4605 19.1288 19.178 19.3065C18.6031 19.6682 18.0014 20.0467 17.3855 20.3684C17.218 20.4559 17.0486 20.5463 16.877 20.6378C16.2386 20.9782 15.5701 21.3347 14.8568 21.6212C13.5499 22.146 12.2165 22.0206 11.0352 21.8635C9.79275 21.6982 8.44754 21.233 7.40142 20.4324C6.88342 20.0359 6.51096 19.5323 6.2001 19.0971C6.14739 19.0233 6.08667 18.942 6.02124 18.8544C5.75878 18.5028 5.42055 18.0498 5.22007 17.5751C5.15464 17.4202 5.07648 17.249 4.99358 17.0675C4.79836 16.6399 4.57687 16.1549 4.43354 15.6891C4.25606 15.1122 4.18323 14.5236 4.16966 13.9536C4.14874 13.0748 4.21844 12.2172 4.44058 11.3392C4.48538 11.1621 4.52104 10.9864 4.56035 10.7927C4.5735 10.7279 4.58705 10.6611 4.60149 10.5916C4.65657 10.3264 4.7223 10.0342 4.8209 9.74324C5.2065 8.6051 5.87583 7.50355 6.72488 6.64201C7.0536 6.30845 7.46227 6.11109 7.7544 5.97C7.78644 5.95452 7.81708 5.93973 7.84605 5.9255C8.30451 5.70044 8.83632 5.48436 9.39279 5.37756C9.51077 5.35492 9.63204 5.33085 9.75594 5.30626C10.3133 5.19565 10.9237 5.07449 11.5269 5.02511C11.9233 4.99266 12.3424 4.99892 12.7172 5.00452Z" fill="white"/>
</svg>
