<svg width="24" height="24" viewBox="0 0 24 24" fill="none" xmlns="http://www.w3.org/2000/svg">
<path d="M6.90882 4.21115C6.26042 4.15565 5.6135 4.0787 4.96418 4.06976C4.6654 4.05984 4.39768 3.98432 4.10144 4.0689C3.31585 4.2932 2.5632 4.62603 1.8084 5.02618C1.40124 5.24203 0.831108 5.48853 0.437643 5.82967C0.373661 5.88515 0.351523 6.54925 0.346428 6.62933C0.279744 7.67726 0.485552 8.78977 0.579532 9.82024C0.699195 11.1323 0.778203 12.4409 0.868379 13.757C0.974872 15.3113 1.25722 16.8132 1.4106 18.355C1.47892 19.0417 1.49218 19.0397 1.95223 18.9702L1.95282 18.9701C3.11996 18.7937 4.28962 18.7391 5.46206 18.7087C10.234 18.5848 15.0079 18.7191 19.7802 18.651C20.2848 18.6438 22.424 18.6653 23.2464 18.4396C23.3855 18.4014 23.5435 18.3383 23.6315 18.1705C23.7458 17.9526 23.5453 16.3962 23.5352 16.2213C23.3821 13.5486 23.3751 10.8694 23.3123 8.19018C23.2893 7.21042 23.285 6.22227 23.2261 5.24531C23.2061 4.91199 23.187 4.42922 23.069 4.11888C22.9537 3.81557 21.6658 4.18615 21.5083 4.20731C19.5973 4.4639 17.663 4.40071 15.7465 4.41106C12.8007 4.42697 9.851 4.46298 6.90882 4.21115Z" fill="#006A4E"/>
<path fill-rule="evenodd" clip-rule="evenodd" d="M10.5686 8.21745C10.6454 8.22678 10.714 8.23512 10.77 8.24006C10.9649 8.25726 11.1654 8.27209 11.3698 8.28721C12.2593 8.35298 13.2229 8.42423 14.1174 8.7201C14.526 8.85528 14.8062 9.25279 14.996 9.5952C15.1184 9.81598 15.2431 10.0962 15.3404 10.3147C15.3645 10.3688 15.3869 10.4191 15.4072 10.4638C15.459 10.5057 15.511 10.5612 15.5557 10.6349C15.6404 10.7745 15.6776 10.9319 15.6937 11.0665C15.9897 11.7131 16.2718 12.5078 16.1279 13.467C16.0814 13.7776 15.9974 14.0529 15.859 14.2763C15.7175 14.5049 15.5423 14.6417 15.3613 14.7208C15.188 14.7965 15.0079 14.82 14.8464 14.8286C14.7314 14.8347 14.6047 14.8336 14.4851 14.8325C14.4407 14.8321 14.3972 14.8318 14.3557 14.8318C13.3944 14.8318 12.433 14.7831 11.481 14.7228C11.4187 14.7188 11.3543 14.7153 11.2882 14.7117C11.2655 14.7105 11.2426 14.7092 11.2195 14.7079C11.2091 14.7079 11.1986 14.7079 11.1882 14.7079C11.1339 14.7079 11.0759 14.7107 11.0146 14.7137C10.7534 14.7264 10.4337 14.7419 10.0983 14.5539C10.0005 14.5263 9.90334 14.4934 9.80761 14.4539C9.00928 14.1247 8.22044 13.4498 7.91746 12.2046C7.83191 11.853 7.81781 11.4332 7.84751 11.0532C7.87154 10.7458 7.92801 10.4162 8.02678 10.1285C8.08849 9.87139 8.18211 9.62392 8.28613 9.40606C8.43839 9.08713 8.63462 8.78621 8.8437 8.5735C9.17062 8.24091 9.57299 8.1724 9.89649 8.16703C10.1228 8.16328 10.3722 8.19359 10.5686 8.21745ZM11.2483 13.5558C10.9344 13.5376 10.6442 13.5177 10.3715 13.4521C10.3649 13.4472 10.3583 13.4421 10.3516 13.4367C10.1521 13.277 9.90029 12.9938 9.709 12.665C9.70064 12.6506 9.6925 12.6363 9.68456 12.6221C9.91871 12.6815 10.1579 12.6894 10.3752 12.6805C10.779 12.8182 11.192 12.9091 11.6127 12.9532C12.3269 13.0279 13.0479 13.0411 13.7643 12.9889C13.7822 12.9876 13.8178 12.9868 13.8655 12.9857C13.9833 12.983 14.1754 12.9786 14.3602 12.961C14.3439 12.9905 14.3281 13.0167 14.3127 13.0393C14.2721 13.0992 14.25 13.1123 14.2501 13.1125C14.2501 13.1125 14.2503 13.1124 14.2508 13.1122C13.3271 13.5435 12.3095 13.5555 11.2483 13.5558ZM15.0585 13.6389C15.0706 13.6349 15.0819 13.6305 15.0925 13.6259C15.1463 13.6024 15.1731 13.5752 15.1932 13.5426C15.2166 13.5048 15.254 13.4218 15.2811 13.2411C15.2886 13.1911 15.2942 13.1418 15.2979 13.0932C15.2695 13.1716 15.239 13.251 15.2065 13.3284C15.1638 13.4303 15.1146 13.5365 15.0585 13.6389ZM10.0988 11.3686C10.2214 11.4249 10.3451 11.476 10.4699 11.522C10.6002 11.5126 10.7324 11.4973 10.8672 11.4814C10.8743 11.4806 10.8815 11.4798 10.8886 11.4789C10.9333 11.4736 10.9785 11.4683 11.0239 11.4632C10.9733 11.3652 10.9484 11.2529 10.9478 11.1411C10.7087 11.1747 10.4773 11.2268 10.2524 11.3091C10.2065 11.3259 10.1544 11.3457 10.0988 11.3686ZM12.41 11.3638C12.41 11.3639 12.41 11.364 12.4099 11.3641C12.3842 11.3841 12.322 11.4154 12.2015 11.4339C12.0817 11.4523 11.9437 11.4526 11.7949 11.4472C11.8314 11.4161 11.8533 11.4027 11.8713 11.3943C11.9039 11.379 11.9563 11.3645 12.1309 11.3645C12.2244 11.3645 12.3174 11.3642 12.41 11.3638ZM12.4084 11.3783C12.4084 11.3783 12.4084 11.3781 12.4085 11.3776C12.4084 11.3781 12.4084 11.3783 12.4084 11.3783ZM13.2745 11.3648C13.6645 11.3703 14.0494 11.3869 14.434 11.4319C14.4679 11.4359 14.5046 11.4365 14.5301 11.4367C14.5486 11.4369 14.5696 11.4369 14.5907 11.4368C14.6198 11.487 14.6471 11.5386 14.6706 11.5903C14.6944 11.6422 14.7098 11.6846 14.7194 11.7171C14.7182 11.7177 14.7169 11.7183 14.7156 11.7189C14.6432 11.7527 14.539 11.78 14.41 11.7987C14.2276 11.8251 14.0709 11.8281 13.9309 11.8308C13.8553 11.8323 13.7845 11.8336 13.7173 11.8385C13.5422 11.8513 13.3667 11.8599 13.1911 11.8645C13.2385 11.7303 13.2671 11.5786 13.2729 11.4111C13.2734 11.3959 13.274 11.3804 13.2745 11.3648Z" fill="#F42A41"/>
</svg>
