<svg width="24" height="24" viewBox="0 0 24 24" fill="none" xmlns="http://www.w3.org/2000/svg">
<path fill-rule="evenodd" clip-rule="evenodd" d="M8.83527 3.51429C8.93301 3.83646 8.75107 4.17686 8.4289 4.27459C7.12944 4.66881 6.02029 5.03157 5.39656 5.97661C5.24484 6.2065 5.18534 6.59017 5.23802 7.10842C5.28873 7.60718 5.43191 8.12506 5.56319 8.5323C5.76192 9.14876 6.08099 9.7347 6.45687 10.3371C6.59885 10.5647 6.7586 10.8087 6.9223 11.0587C7.16602 11.431 7.41849 11.8166 7.6341 12.1812C7.70367 12.2989 7.77119 12.4143 7.8376 12.5278C8.10577 12.9863 8.35591 13.414 8.65029 13.8312C8.82967 14.0855 9.00577 14.3768 9.16973 14.648C9.23934 14.7631 9.30677 14.8746 9.37132 14.9781C9.60315 15.3499 9.82315 15.6636 10.0705 15.901C10.2261 16.0504 10.4023 16.1797 10.6192 16.3388L10.6369 16.3518C10.8503 16.5085 11.1031 16.6951 11.3332 16.9278C11.5678 17.1651 11.7788 17.4154 11.9738 17.6506C12.0013 17.6838 12.0285 17.7167 12.0554 17.7492C12.1944 17.9173 12.3256 18.0758 12.4608 18.2283C12.5214 17.5128 12.8795 16.9608 13.3647 16.5616C13.9254 16.1004 14.65 15.843 15.2734 15.6936C15.2968 15.688 15.3295 15.6796 15.3698 15.6693C15.5945 15.612 16.0573 15.4939 16.4799 15.4487C16.721 15.4229 17.03 15.4099 17.3035 15.488C17.4463 15.5287 17.6242 15.6067 17.7697 15.7637C17.9276 15.9339 18.0018 16.1482 18.0018 16.368C18.0018 17.9137 17.5384 19.2797 17.0748 20.6125C16.8783 21.1775 16.4232 21.52 15.935 21.6491C15.4566 21.7757 14.92 21.7081 14.4748 21.4446C13.4843 20.8584 12.4276 19.9979 11.6473 19.1466C11.4584 18.9405 11.2801 18.7248 11.1134 18.5232C11.087 18.4913 11.061 18.4598 11.0352 18.4287C10.8417 18.1952 10.66 17.981 10.4662 17.785C10.313 17.6299 10.1346 17.4955 9.91555 17.3347C9.90303 17.3255 9.89034 17.3162 9.8775 17.3068C9.67767 17.1603 9.44176 16.9875 9.22622 16.7805C8.86457 16.4334 8.57936 16.0122 8.3368 15.6232C8.25157 15.4865 8.17323 15.3568 8.09823 15.2327C7.94639 14.9813 7.8082 14.7525 7.6541 14.5341C7.32675 14.0701 7.04415 13.5866 6.77378 13.1241C6.71022 13.0153 6.64734 12.9077 6.5847 12.8018C6.37344 12.4446 6.15836 12.1171 5.93417 11.7757C5.76925 11.5246 5.5994 11.266 5.42253 10.9825C5.02775 10.3498 4.64718 9.66437 4.40283 8.90637C4.26245 8.4709 4.08873 7.85754 4.02511 7.23173C3.96346 6.62541 3.99219 5.89117 4.37903 5.30504C5.26772 3.95854 6.8028 3.49341 8.00291 3.12977C8.02707 3.12245 8.05109 3.11517 8.07497 3.10793C8.39714 3.01019 8.73754 3.19213 8.83527 3.51429ZM13.5113 19.2488C13.7178 19.4254 13.9314 19.5965 14.1475 19.7583C13.9729 19.5782 13.8732 19.363 13.8141 19.1708C13.7959 19.1115 13.7805 19.0513 13.7676 18.991C13.7312 19.0398 13.6887 19.0924 13.6466 19.1352C13.6178 19.1645 13.5721 19.2079 13.5113 19.2488ZM15.9859 19.502C15.9684 19.5549 15.9476 19.6076 15.9227 19.6584C15.8622 19.7817 15.6943 20.0581 15.3385 20.1089C15.0394 20.1516 14.7451 20.1271 14.4842 20.0013C14.6894 20.1439 14.8945 20.2763 15.0957 20.3954C15.2563 20.4904 15.4564 20.5146 15.6233 20.4705C15.7804 20.4289 15.8794 20.3383 15.9233 20.212C16.0011 19.9884 16.0767 19.7694 16.1487 19.5536C16.0913 19.544 16.0366 19.5264 15.9859 19.502ZM16.9711 16.661C16.9711 16.661 16.9705 16.6609 16.9694 16.6605C16.9705 16.6608 16.971 16.661 16.9711 16.661Z" fill="white"/>
<path fill-rule="evenodd" clip-rule="evenodd" d="M7.9004 3.11159C8.17544 2.91744 8.5558 2.98302 8.74995 3.25807C9.58088 4.43521 10.4121 5.76041 10.4121 7.42713C10.4121 8.15377 10.1626 8.76342 9.67218 9.18381C9.19778 9.59045 8.57156 9.75685 7.92751 9.76856C7.60196 9.77448 7.27882 9.73702 6.99535 9.51536C6.87068 9.41788 6.78089 9.30519 6.71465 9.21456C6.67952 9.16649 6.63374 9.09952 6.59076 9.03664C6.56498 8.99891 6.54019 8.96266 6.51933 8.93285C6.22034 8.50571 5.89103 8.16198 5.495 7.83196C5.23637 7.61643 5.20143 7.23205 5.41695 6.97341C5.63248 6.71478 6.01687 6.67984 6.2755 6.89536C6.74208 7.28418 7.14857 7.70579 7.51811 8.2337C7.55202 8.28213 7.58308 8.32771 7.60978 8.36687C7.6146 8.37396 7.61929 8.38083 7.62382 8.38748C7.65482 8.4329 7.67812 8.46666 7.69897 8.49519C7.71563 8.51798 7.72757 8.53293 7.73553 8.54237C7.76122 8.5464 7.81294 8.55127 7.90535 8.54959C8.37059 8.54113 8.68742 8.42215 8.87874 8.25816C9.05402 8.10792 9.19294 7.86168 9.19294 7.42713C9.19294 6.17678 8.5785 5.12928 7.75393 3.96114C7.55978 3.6861 7.62536 3.30574 7.9004 3.11159ZM7.71424 8.53759C7.71443 8.53749 7.71659 8.53801 7.72014 8.53943C7.71582 8.5384 7.71405 8.53769 7.71424 8.53759Z" fill="white"/>
<path fill-rule="evenodd" clip-rule="evenodd" d="M7.63525 5.10957C7.63494 5.10965 7.63466 5.10972 7.63441 5.10978C7.63552 5.10952 7.63663 5.10925 7.63773 5.10899C7.63674 5.10918 7.63592 5.10939 7.63525 5.10957ZM7.72112 5.13964C7.70936 5.15729 7.69686 5.17668 7.68366 5.19778C7.66129 5.23357 7.63928 5.27052 7.618 5.30729C7.65001 5.3147 7.6807 5.32364 7.71 5.33369C7.73943 5.30739 7.77942 5.27532 7.82747 5.24689C7.83163 5.24443 7.83635 5.24169 7.84159 5.23875C7.79623 5.19319 7.75541 5.1609 7.72112 5.13964ZM8.82768 7.49595C8.94642 7.39826 9.06087 7.29258 9.15628 7.18016C9.29951 7.01139 9.42531 6.80386 9.48851 6.54759C9.55193 6.29041 9.5427 6.02307 9.4729 5.74886C9.38661 5.40984 9.17706 4.94211 8.87446 4.5674C8.59193 4.21755 8.06131 3.75687 7.35517 3.92302C7.20968 3.95725 7.1025 4.02995 7.03999 4.07925C6.9725 4.13246 6.91658 4.19096 6.87326 4.24108C6.78689 4.341 6.71009 4.45518 6.64983 4.55158C6.58759 4.65117 6.5317 4.75018 6.48937 4.82655L6.43562 4.924C6.42372 4.94548 6.41799 4.95545 6.41616 4.95863C6.41547 4.95984 6.41534 4.96006 6.41566 4.95955C6.34893 5.06632 6.28334 5.17474 6.21945 5.28497C6.20151 5.28506 6.1838 5.28511 6.16636 5.28511C6.14417 5.28511 6.12183 5.28509 6.09938 5.28506C5.91507 5.28485 5.72425 5.28464 5.55887 5.29837C5.37525 5.31362 5.13863 5.35061 4.9222 5.48225C4.41391 5.79142 4.36517 6.3726 4.37819 6.85422C4.39381 7.43228 4.62703 7.91403 5.03097 8.24336C5.1893 8.37245 5.36535 8.4714 5.55155 8.54416C5.56698 8.57169 5.58365 8.599 5.60165 8.62597C5.45921 8.59149 5.32333 8.55133 5.1974 8.50516C4.88132 8.38926 4.53112 8.55154 4.41522 8.86763C4.29933 9.18372 4.46161 9.53391 4.7777 9.64981C5.51502 9.92016 6.41599 10.0135 7.14114 10.0135C7.54271 10.0135 7.81168 9.77738 7.96253 9.5581C8.10453 9.35167 8.1828 9.10932 8.23069 8.91486C8.24742 8.84694 8.26253 8.77343 8.27609 8.69861C8.56235 8.64854 8.77992 8.39876 8.77992 8.09817C8.77992 8.0485 8.78728 7.95927 8.80122 7.80689L8.80263 7.79157C8.8107 7.70344 8.81998 7.60214 8.82768 7.49595ZM5.63305 6.51585C5.62403 6.5168 5.61579 6.51777 5.6083 6.51874C5.60474 6.54273 5.60148 6.57308 5.59918 6.611C5.61023 6.57914 5.62153 6.54742 5.63305 6.51585Z" fill="white"/>
<path fill-rule="evenodd" clip-rule="evenodd" d="M16.8643 16.1775C16.8643 15.8409 17.1372 15.568 17.4739 15.568C17.7615 15.568 18.04 15.6274 18.2795 15.7863C18.5225 15.9475 18.6629 16.1696 18.7459 16.3803C18.825 16.5812 18.8601 16.7927 18.8825 16.967C18.8934 17.0525 18.9025 17.1398 18.9109 17.2202L18.9121 17.2321C18.9211 17.3185 18.9295 17.3984 18.9398 17.4772C19.0128 18.0382 19.0311 18.6871 18.9736 19.2623C18.9158 19.8398 18.5657 20.4495 18.2641 20.8115C17.9187 21.2259 17.3913 21.3794 16.9899 21.4478C16.5671 21.5197 16.1303 21.5205 15.8417 21.5205C15.505 21.5205 15.2321 21.2476 15.2321 20.9109C15.2321 20.5743 15.505 20.3013 15.8417 20.3013C16.1384 20.3013 16.4777 20.2982 16.7853 20.2459C17.1142 20.1899 17.2712 20.0986 17.3275 20.031C17.5434 19.7719 17.736 19.386 17.7605 19.141C17.8077 18.6689 17.7932 18.1141 17.7308 17.6345C17.7182 17.538 17.7083 17.4433 17.6995 17.3584L17.6988 17.352C17.69 17.267 17.6823 17.1928 17.6732 17.1222C17.654 16.9723 17.6336 16.883 17.6115 16.827C17.6066 16.8146 17.6026 16.8062 17.5997 16.8007C17.5834 16.7956 17.5454 16.7871 17.4739 16.7871C17.1372 16.7871 16.8643 16.5142 16.8643 16.1775ZM17.6096 16.8046C17.6096 16.8046 17.6091 16.8044 17.6081 16.8038C17.6092 16.8043 17.6096 16.8046 17.6096 16.8046ZM17.5956 16.7939C17.5948 16.793 17.5943 16.7924 17.5944 16.7923C17.5944 16.7922 17.5948 16.7927 17.5956 16.7939Z" fill="white"/>
<path fill-rule="evenodd" clip-rule="evenodd" d="M17.3987 16.2955C17.604 16.0287 17.9867 15.9788 18.2536 16.184C18.8979 16.6797 19.1993 17.341 19.3402 17.9969C19.4714 18.6076 19.4711 19.2562 19.4708 19.7983C19.4708 19.8218 19.4708 19.8451 19.4708 19.8681C19.4708 20.3459 19.2473 20.6951 18.9542 20.9303C18.6923 21.1406 18.3702 21.2639 18.1326 21.3489C17.6914 21.5067 17.2077 21.5771 16.8049 21.6358C16.7104 21.6495 16.6204 21.6626 16.5364 21.6761C16.4832 21.6846 16.4455 21.6929 16.4019 21.7024C16.3904 21.705 16.3784 21.7076 16.3657 21.7103C16.3646 21.7106 16.3629 21.711 16.3607 21.7115C16.3274 21.7193 16.1708 21.7561 16.0074 21.7232C15.7335 21.668 15.5912 21.4768 15.5274 21.3569C15.4829 21.2736 15.45 21.1742 15.4305 21.1154C15.4291 21.1113 15.4278 21.1074 15.4266 21.1037C15.3201 20.7843 15.4927 20.4391 15.8121 20.3326C16.0292 20.2602 16.2583 20.3168 16.4161 20.4608C16.5103 20.4461 16.6009 20.4328 16.6884 20.4198C17.0777 20.3623 17.4064 20.3138 17.7219 20.2009C17.9601 20.1157 18.105 20.0486 18.1911 19.9795C18.227 19.9507 18.2384 19.9322 18.242 19.9253L18.242 19.9253C18.2443 19.921 18.2516 19.9069 18.2516 19.8681L18.2516 19.8521C18.2516 19.269 18.2517 18.7345 18.1482 18.253C18.0479 17.7858 17.8597 17.4192 17.5102 17.1504C17.2434 16.9451 17.1935 16.5624 17.3987 16.2955Z" fill="white"/>
<path fill-rule="evenodd" clip-rule="evenodd" d="M6.68904 7.81513C7.02564 7.80833 7.30402 8.07568 7.31082 8.41228C7.3386 9.78734 7.75208 10.7559 8.57787 11.9271C8.81994 12.2705 9.11654 12.5717 9.45611 12.9166C9.48247 12.9434 9.50909 12.9704 9.53597 12.9978C9.89509 13.3631 10.295 13.7789 10.6106 14.2873C10.7232 14.4687 10.8338 14.6487 10.9436 14.8273C11.4165 15.5966 11.8731 16.3395 12.3967 17.0487C12.8113 17.6103 13.3185 18.0605 13.8751 18.5545C14.0917 18.7468 14.3158 18.9457 14.5448 19.1604C14.7904 19.3907 14.8028 19.7765 14.5726 20.0221C14.3423 20.2677 13.9565 20.2801 13.7109 20.0499C13.5363 19.8862 13.3464 19.7177 13.1494 19.5429C12.5626 19.0224 11.9127 18.4458 11.4158 17.7728C10.8585 17.0179 10.3687 16.2208 9.89426 15.4485C9.78719 15.2743 9.68089 15.1012 9.57477 14.9303C9.33868 14.5499 9.02802 14.2202 8.6665 13.8524C8.63683 13.8222 8.60674 13.7917 8.57629 13.7608C8.25007 13.43 7.88417 13.059 7.58144 12.6296C6.65904 11.3213 6.12591 10.1209 6.09189 8.4369C6.08509 8.10031 6.35245 7.82193 6.68904 7.81513Z" fill="white"/>
<path fill-rule="evenodd" clip-rule="evenodd" d="M7.05021 7.65466C7.38528 7.62197 7.68342 7.8671 7.71611 8.20217C7.95721 10.6734 8.91916 12.5797 10.4824 14.4851C10.8691 14.9566 11.2467 15.4384 11.6196 15.9143C11.7756 16.1133 11.9307 16.3112 12.0853 16.5069C12.2506 16.7161 12.4392 16.9107 12.6514 17.1239C12.6751 17.1477 12.6992 17.1718 12.7236 17.1963C12.9106 17.3836 13.1159 17.5893 13.3067 17.8109C13.4011 17.9206 13.5026 18.0201 13.6252 18.1404L13.6314 18.1465C13.7509 18.2638 13.8919 18.4024 14.0249 18.562C14.2404 18.8206 14.2055 19.205 13.9468 19.4206C13.6882 19.6361 13.3038 19.6011 13.0883 19.3425C12.9997 19.2362 12.9005 19.1375 12.7775 19.0167C12.7715 19.0108 12.7654 19.0049 12.7593 18.9989C12.6458 18.8875 12.5115 18.7559 12.3828 18.6065C12.2233 18.4212 12.0512 18.2487 11.8607 18.0576C11.8365 18.0334 11.8121 18.0089 11.7873 17.984C11.574 17.7697 11.3414 17.5319 11.1287 17.2627C10.9675 17.0587 10.8086 16.856 10.6507 16.6545C10.2816 16.1834 9.91753 15.7188 9.5398 15.2584C7.86348 13.2151 6.7727 11.0881 6.5027 8.32055C6.47001 7.98548 6.71514 7.68735 7.05021 7.65466Z" fill="white"/>
</svg>
