<svg width="24" height="24" viewBox="0 0 24 24" fill="none" xmlns="http://www.w3.org/2000/svg">
<path fill-rule="evenodd" clip-rule="evenodd" d="M12.9595 6.08877C12.1041 6.07619 11.3195 6.06465 10.5935 6.26609C9.78073 6.49164 9.09876 7.07407 8.53099 7.812C8.17197 8.2786 8.07436 8.73344 8.09601 9.383C8.13202 10.4633 8.49855 11.4176 9.01147 12.4587C9.51125 13.4731 10.0464 14.438 10.6774 15.3573C10.7862 15.5158 10.8911 15.6721 10.9941 15.8256C11.4195 16.4593 11.8125 17.0449 12.3171 17.5442C12.5405 17.7654 12.7037 17.876 12.8658 17.9093C13.0182 17.5626 13.217 17.2663 13.4048 16.9915C13.5545 16.7724 13.7195 16.5677 13.8745 16.3792C13.9013 16.3465 13.9277 16.3145 13.9537 16.2829C14.0825 16.1269 14.2019 15.9821 14.3139 15.8327C14.7838 15.2062 15.1451 14.4765 15.4351 13.7131C15.6886 13.046 15.6951 12.3854 15.6951 11.5585C15.6951 11.4285 15.6958 11.2999 15.6965 11.1726C15.7001 10.5034 15.7036 9.87136 15.6039 9.26561C15.5146 8.72305 15.2507 8.15845 14.9702 7.57155C14.9159 7.45804 14.8623 7.33483 14.8117 7.21828C14.8069 7.20731 14.8022 7.19639 14.7974 7.18556C14.7409 7.05555 14.6862 6.93102 14.628 6.81145C14.5078 6.56435 14.3947 6.38635 14.2797 6.27727C14.2163 6.21708 14.0666 6.1511 13.7844 6.11736C13.5742 6.09224 13.3646 6.09131 13.1556 6.09038C13.0934 6.0901 13.0314 6.08983 12.9693 6.08891L12.9595 6.08877ZM13.218 18.8952C13.4645 18.9204 13.7043 18.7727 13.786 18.5278C13.8894 18.2174 14.0604 17.9506 14.2985 17.6021C14.419 17.4257 14.5576 17.2527 14.7107 17.0664C14.7348 17.0371 14.7594 17.0073 14.7844 16.977C14.9132 16.8209 15.0514 16.6534 15.1798 16.4822C15.7293 15.7495 16.1341 14.921 16.4469 14.0975C16.7776 13.2274 16.7775 12.3803 16.7775 11.5864L16.7775 11.5585C16.7775 11.4421 16.7782 11.3226 16.779 11.2008C16.7832 10.5335 16.7879 9.79442 16.6719 9.0898C16.5543 8.37574 16.2206 7.67765 15.9548 7.12167L15.9467 7.10474C15.9013 7.00966 15.8554 6.90418 15.8028 6.78314C15.7985 6.77343 15.7943 6.76362 15.7899 6.75371C15.7336 6.62424 15.6707 6.48048 15.6013 6.33789C15.4664 6.06065 15.2848 5.73881 15.0247 5.49204C14.6978 5.18191 14.2504 5.08299 13.9129 5.04263C13.6338 5.00927 13.3396 5.00829 13.1258 5.00758C13.0737 5.00741 13.0264 5.00725 12.9853 5.00665C12.9595 5.00627 12.9337 5.00588 12.9077 5.00549C12.102 4.99337 11.182 4.97953 10.3041 5.22312C9.17713 5.53585 8.31563 6.31692 7.67314 7.15195C7.11386 7.87885 6.98721 8.60849 7.01423 9.41906C7.05798 10.7316 7.50619 11.8525 8.04053 12.937C8.5551 13.9815 9.11583 14.9948 9.78499 15.9698C9.87861 16.1062 9.97323 16.2474 10.0698 16.3917C10.4987 17.0321 10.9662 17.7302 11.5557 18.3136C11.8447 18.5996 12.2621 18.956 12.8593 18.9986C12.9926 19.0081 13.1181 18.9685 13.218 18.8952Z" fill="white"/>
<path fill-rule="evenodd" clip-rule="evenodd" d="M12.1095 8.43915C12.118 8.44166 12.1261 8.44407 12.1338 8.44633C12.1457 8.44979 12.1604 8.45321 12.1993 8.46206L12.2004 8.46231C12.2326 8.46964 12.2843 8.48139 12.3383 8.49802C12.4489 8.53207 12.6219 8.60142 12.7637 8.76682C12.9569 8.99227 12.9901 9.26654 12.999 9.42237C13.0051 9.52881 12.9999 9.69089 12.9974 9.77158C12.9967 9.79436 12.9961 9.81066 12.9961 9.81738C12.9961 9.88236 12.9981 9.95968 13.0003 10.0446C13.006 10.2682 13.013 10.5445 12.9889 10.787C12.9524 11.1545 12.8412 11.5718 12.5085 11.9255C12.5027 11.9317 12.4965 11.9383 12.4899 11.9455C12.4087 12.0324 12.264 12.1876 12.0869 12.288C11.8451 12.4252 11.5408 12.4677 11.224 12.3145C11.0549 12.2328 10.8845 12.1369 10.7214 12.0227C10.2823 11.7153 10.2566 11.2066 10.2687 10.9232C10.2756 10.7635 10.2979 10.6066 10.3166 10.4823C10.3191 10.4652 10.3216 10.4488 10.3239 10.4332C10.3405 10.3231 10.3515 10.2499 10.3555 10.1905C10.3768 9.8678 10.4277 9.54885 10.5249 9.22601C10.5249 9.22615 10.5248 9.22622 10.5248 9.22622C10.5248 9.22622 10.5256 9.22346 10.5278 9.21515C10.5283 9.21343 10.529 9.21053 10.53 9.20699C10.532 9.19906 10.535 9.18793 10.5372 9.17975C10.5447 9.1517 10.5564 9.10923 10.5726 9.06349C10.5882 9.01941 10.6134 8.95649 10.6531 8.89146C10.691 8.82935 10.7617 8.73282 10.882 8.66063C10.988 8.59705 11.107 8.57396 11.221 8.58688C11.2613 8.55681 11.307 8.52357 11.3504 8.49633C11.4155 8.45553 11.5132 8.40314 11.6416 8.38204C11.7686 8.36117 11.8764 8.37915 11.9463 8.39476C11.999 8.40653 12.0601 8.42459 12.1095 8.43915ZM11.5008 9.77475C11.4676 9.93173 11.4467 10.0927 11.4355 10.2619C11.4283 10.3706 11.4094 10.4953 11.3938 10.598C11.3914 10.6134 11.3891 10.6283 11.387 10.6426C11.3685 10.766 11.3543 10.8727 11.3501 10.9694C11.3455 11.0776 11.3554 11.1291 11.3615 11.1494C11.4389 11.2023 11.5222 11.2515 11.6104 11.2975C11.6404 11.2687 11.6723 11.2347 11.7174 11.1868L11.7201 11.184C11.8295 11.0676 11.8886 10.9145 11.9119 10.68C11.9291 10.5062 11.9248 10.3463 11.9196 10.1567C11.9168 10.0545 11.9138 9.94367 11.9138 9.81738C11.9138 9.76962 11.9157 9.71337 11.9173 9.66776C11.9178 9.653 11.9182 9.63936 11.9186 9.62748C11.92 9.58086 11.9204 9.54218 11.9194 9.50838C11.8932 9.50224 11.8614 9.49438 11.8298 9.48513L11.828 9.4846C11.8269 9.48538 11.8259 9.48614 11.825 9.48687C11.8244 9.48792 11.8237 9.48902 11.8231 9.49017C11.8193 9.49677 11.816 9.5026 11.8122 9.5093C11.8089 9.51504 11.8053 9.52142 11.8007 9.52947C11.7317 9.65021 11.6232 9.73428 11.5008 9.77475ZM12.0245 9.53407C12.0245 9.53407 12.0241 9.53392 12.0232 9.53359C12.0241 9.5339 12.0245 9.53406 12.0245 9.53407ZM11.3658 11.1604C11.3657 11.1605 11.3652 11.1597 11.3644 11.1578C11.3654 11.1594 11.3658 11.1603 11.3658 11.1604Z" fill="white"/>
</svg>
