<svg width="104" height="96" viewBox="0 0 104 96" fill="none" xmlns="http://www.w3.org/2000/svg">
<rect x="1.00031" y="1" width="102" height="94" rx="43" fill="#FFC700"/>
<rect x="1.00031" y="1" width="102" height="94" rx="43" stroke="black" stroke-width="2"/>
<path fill-rule="evenodd" clip-rule="evenodd" d="M65.5265 25.6296C62.3981 28.9698 58.9257 32.0475 55.5393 35.0488C54.0631 36.3572 52.6032 37.6512 51.1953 38.946C50.6508 39.4467 50.1091 39.9297 49.576 40.4049C47.8666 41.9287 46.2468 43.3727 44.9158 45.0667C44.1279 46.0694 43.3632 47.0079 42.6077 47.935C41.6735 49.0815 40.7534 50.2106 39.8216 51.422C38.037 53.742 35.9444 55.5123 33.8762 57.2622C33.7047 57.4073 33.5333 57.5523 33.3623 57.6974C33.1572 57.8715 32.9399 58.0775 32.6744 58.3291C32.6534 58.349 32.6321 58.3692 32.6105 58.3898C32.3294 58.6561 32.004 58.9623 31.6561 59.2511C30.9858 59.8076 30.059 60.4512 28.919 60.6085C28.1159 60.7192 27.375 60.158 27.2643 59.3549C27.1535 58.5517 27.7147 57.8109 28.5178 57.7001C28.8233 57.658 29.2248 57.4538 29.7808 56.9922C30.046 56.772 30.3082 56.5266 30.5912 56.2586C30.6157 56.2353 30.6406 56.2117 30.6657 56.1879C30.9158 55.9506 31.1922 55.6885 31.4625 55.4591C31.6218 55.3239 31.7797 55.1901 31.9363 55.0575C34.048 53.2691 35.9093 51.6928 37.4945 49.632C38.4115 48.4399 39.4093 47.2136 40.3914 46.0067C41.1547 45.0686 41.9084 44.1423 42.6072 43.2529C44.1155 41.3333 46.0036 39.652 47.7509 38.0961C48.2522 37.6497 48.742 37.2135 49.2079 36.7851C50.7052 35.408 52.2216 34.0638 53.7308 32.726C57.9345 28.9996 62.0818 25.3233 65.6024 21.1258C65.6918 21.0192 66.0752 20.562 66.7438 20.506C67.6681 20.4287 68.1337 21.115 68.2609 21.3617C68.3965 21.6243 68.4408 21.8813 68.4592 22.0058C68.4819 22.1593 68.4909 22.3099 68.4947 22.4349C68.5023 22.6865 68.4911 22.9417 68.4805 23.1196C68.4749 23.212 68.469 23.291 68.4646 23.3468L68.4624 23.3753V56.238C68.4624 57.3042 68.4717 58.3848 68.4811 59.4734C68.5015 61.8256 68.5221 64.215 68.4495 66.5752C68.4209 67.5053 68.3243 68.4351 68.2341 69.3027C68.2252 69.3882 68.2164 69.473 68.2077 69.5571C68.1085 70.5191 68.0249 71.4089 68.0249 72.2775C68.0249 73.0882 67.3677 73.7454 66.557 73.7454C65.7463 73.7454 65.089 73.0882 65.089 72.2775C65.089 71.2401 65.1886 70.2129 65.2874 69.2559C65.2957 69.1745 65.3041 69.0937 65.3125 69.0133C65.4044 68.1266 65.4899 67.3024 65.515 66.4849C65.5859 64.1825 65.5659 61.8927 65.5457 59.5724C65.5361 58.4694 65.5265 57.3595 65.5265 56.238V25.6296ZM68.4581 23.4302C68.4581 23.4308 68.4583 23.4262 68.4592 23.4145C68.4587 23.4238 68.4582 23.4296 68.4581 23.4302Z" fill="#0E0F1E"/>
<path fill-rule="evenodd" clip-rule="evenodd" d="M53.8698 55.4649C53.5754 55.5804 53.1712 55.7354 52.663 55.8776C51.8303 56.1106 51.0532 56.2994 50.3072 56.4807C48.9361 56.8138 47.6704 57.1213 46.3587 57.6307C46.3045 57.6518 46.2502 57.6729 46.1958 57.694C44.8877 58.2022 43.5369 58.727 42.1159 59.1513C37.9118 60.4067 33.4622 61.3242 28.9937 61.496C28.1836 61.5272 27.5016 60.8957 27.4704 60.0856C27.4392 59.2755 28.0707 58.5935 28.8808 58.5623C33.0327 58.4026 37.2299 57.5464 41.2759 56.3382C42.5813 55.9484 43.8336 55.462 45.1711 54.9424C45.2126 54.9263 45.2542 54.9101 45.2959 54.8939C46.7784 54.3182 48.3796 53.9266 49.8695 53.5622C50.5694 53.391 51.2448 53.2258 51.8718 53.0503C52.2706 52.9387 52.5772 52.8183 52.8744 52.7016L52.9019 52.6908C52.9181 52.6845 52.9356 52.6776 52.9541 52.6702C53.1971 52.5738 53.6332 52.4009 54.0772 52.3734C54.3679 52.3554 54.6904 52.3922 55.0173 52.5307C55.3346 52.6652 55.5796 52.8632 55.7673 53.0605C56.1064 53.4171 56.3714 53.8973 56.606 54.3664C56.9353 55.0251 57.2221 55.6416 57.498 56.2349C57.9734 57.2569 58.4166 58.21 58.9903 59.1908C59.3658 59.8327 59.7549 60.4664 60.1538 61.116L60.222 61.2271C60.6416 61.9106 61.0708 62.6117 61.4853 63.329C61.8198 63.908 62.2033 64.4699 62.6234 65.0854L62.664 65.1449C63.0881 65.7663 63.5487 66.4443 63.9502 67.1627C64.3375 67.8557 64.6469 68.5858 64.9198 69.2296C64.9622 69.3296 65.0038 69.4275 65.0445 69.5229C65.3626 70.2668 65.653 70.8996 66.0287 71.4632C66.4784 72.1378 66.2962 73.0492 65.6216 73.4989C64.947 73.9486 64.0356 73.7663 63.5859 73.0918C63.0474 72.2839 62.6679 71.4323 62.3451 70.6772C62.2988 70.569 62.2539 70.4633 62.2099 70.3596C61.9323 69.7065 61.6907 69.1379 61.3873 68.5949C61.059 68.0075 60.6707 67.4324 60.239 66.7998C60.2186 66.7699 60.1981 66.7399 60.1775 66.7097C59.7742 66.119 59.3343 65.4747 58.9432 64.7977C58.5509 64.1188 58.141 63.4489 57.72 62.7631L57.6475 62.6451C57.2525 62.0018 56.848 61.3431 56.4561 60.6731C55.8214 59.5879 55.2672 58.4009 54.748 57.2887C54.4851 56.7255 54.231 56.1814 53.9801 55.6794C53.94 55.5993 53.9033 55.5281 53.8698 55.4649Z" fill="#0E0F1E"/>
<path fill-rule="evenodd" clip-rule="evenodd" d="M66.4666 21.9301C67.2146 22.2426 67.5677 23.1023 67.2553 23.8504C66.5042 25.6484 65.9625 27.4614 65.398 29.3504C65.2027 30.004 65.0047 30.6667 64.7944 31.341C63.9925 33.9116 63.0334 36.56 61.3927 39.0602C60.0075 41.1709 58.9434 43.4812 57.843 45.8884C57.7303 46.1349 57.6672 46.3876 57.5653 46.7949C57.5526 46.8457 57.5393 46.8989 57.5253 46.9548C57.4116 47.4063 57.2459 48.0305 56.8757 48.6403C56.4514 49.339 56.041 50.0923 55.7709 50.7755C55.486 51.4963 55.3575 52.2872 55.2238 53.2519C55.2142 53.3216 55.2045 53.3926 55.1946 53.4646C55.0757 54.3325 54.936 55.353 54.6076 56.3381C54.3512 57.1072 53.5199 57.5229 52.7508 57.2665C51.9817 57.0101 51.566 56.1788 51.8224 55.4097C52.0609 54.6941 52.1661 53.9322 52.2946 53.002C52.3015 52.9515 52.3086 52.9005 52.3157 52.849C52.4469 51.9023 52.6102 50.7848 53.0407 49.6961C53.3993 48.789 53.9065 47.8737 54.3661 47.1166C54.4884 46.9153 54.5697 46.6692 54.6782 46.2381C54.6896 46.193 54.7014 46.1447 54.714 46.0935C54.8071 45.7149 54.9384 45.1808 55.1729 44.6678C56.2599 42.29 57.4109 39.7766 58.9381 37.4494C60.3495 35.2987 61.212 32.9664 61.9917 30.4668C62.1788 29.8669 62.3627 29.251 62.5497 28.6249C63.1254 26.6973 63.73 24.6728 64.5462 22.7188C64.8587 21.9707 65.7185 21.6176 66.4666 21.9301Z" fill="#0E0F1E"/>
<path fill-rule="evenodd" clip-rule="evenodd" d="M46.0932 56.9228C46.8425 56.6133 47.7008 56.9699 48.0103 57.7192C49.2623 60.7504 50.2864 63.6562 51.1958 66.7599C51.6334 65.5 52.1345 64.2273 52.7735 62.9893C52.9303 62.6853 53.0825 62.4016 53.2341 62.119C53.4447 61.7265 53.6542 61.3361 53.8735 60.8963C54.2321 60.1774 54.5037 59.5401 54.6344 59.0172C54.831 58.2307 55.628 57.7525 56.4146 57.9491C57.2011 58.1457 57.6793 58.9427 57.4826 59.7292C57.272 60.5719 56.8825 61.4412 56.5008 62.2067C56.2773 62.6547 56.0128 63.1495 55.7762 63.5919C55.6284 63.8684 55.4915 64.1244 55.3823 64.3358C54.8149 65.4352 54.3565 66.5993 53.9346 67.8229C53.6716 68.5856 53.2018 69.2193 52.8959 69.6319C52.8452 69.7002 52.7991 69.7624 52.7591 69.8182C52.4334 70.2725 52.3096 70.5284 52.2843 70.8321C52.2579 71.1487 52.2045 71.563 52.037 71.9178C51.9731 72.0532 51.7299 72.5439 51.1333 72.7589C50.3487 73.0415 49.7454 72.617 49.5145 72.3828C49.2951 72.1604 49.1831 71.9175 49.1313 71.7921C49.069 71.6411 49.0261 71.4903 48.9959 71.3558C48.9352 71.0855 48.9039 70.7838 48.9039 70.4793C48.9039 69.7286 48.6793 68.6193 48.4276 67.7544C47.5357 64.6884 46.5322 61.8309 45.2968 58.84C44.9873 58.0907 45.3438 57.2323 46.0932 56.9228Z" fill="#0E0F1E"/>
<path fill-rule="evenodd" clip-rule="evenodd" d="M54.9184 52.5695C55.6559 52.9062 55.9808 53.777 55.6441 54.5145C54.4022 57.2349 53.5891 60.1996 52.7571 63.2332C52.7012 63.4368 52.6453 63.6407 52.5892 63.8449C52.3549 64.6968 52.2772 65.4442 52.2772 66.3719C52.2772 67.1826 51.62 67.8399 50.8093 67.8399C49.9985 67.8399 49.3413 67.1826 49.3413 66.3719C49.3413 65.2469 49.4389 64.2284 49.7584 63.0664C49.8186 62.8476 49.8789 62.6275 49.9395 62.4063C50.7568 59.4232 51.629 56.2402 52.9734 53.2953C53.3101 52.5578 54.1809 52.2328 54.9184 52.5695Z" fill="#0E0F1E"/>
<path fill-rule="evenodd" clip-rule="evenodd" d="M49.1146 58.7822C48.7585 58.3908 48.3616 58.0263 47.9199 57.7241C47.2508 57.2663 46.3373 57.4376 45.8795 58.1067C45.4217 58.7758 45.593 59.6893 46.2621 60.1471C47.0154 60.6626 47.6678 61.6334 48.3116 62.7453C48.3269 62.7718 48.3355 62.7898 48.3456 62.8117L48.3601 62.8434L48.3602 62.8435C48.3652 62.8544 48.3789 62.884 48.3962 62.9177L48.397 62.9192C48.4089 62.9425 48.4554 63.0331 48.5302 63.1342C48.5688 63.1862 48.6508 63.2907 48.7793 63.3966C48.8137 63.4249 48.8594 63.4599 48.9159 63.4965C48.982 63.6825 49.0713 63.8747 49.1934 64.0517C49.362 64.296 49.7036 64.6684 50.2761 64.7883C50.8688 64.9124 51.3555 64.6939 51.6475 64.4907C52.4286 63.9474 53.3853 62.9768 53.85 62.503C54.0085 62.3415 54.2205 62.0748 54.3941 61.8565C54.4016 61.8471 54.409 61.8378 54.4163 61.8286C54.9456 62.0415 55.574 61.9335 56.0029 61.5046C56.1412 61.3663 56.2468 61.2023 56.2785 61.153C56.2799 61.1508 56.2812 61.1488 56.2823 61.1471C56.339 61.0594 56.3995 60.9583 56.4591 60.853C56.5767 60.6448 56.7152 60.3764 56.8302 60.1023C56.9218 59.8839 57.087 59.4632 57.099 59.0253C57.1045 58.824 57.0908 58.279 56.6568 57.8179C56.1477 57.277 55.4965 57.2844 55.1615 57.346C54.8004 57.4123 54.5099 57.5729 54.3225 57.6937C54.1202 57.8242 53.935 57.9767 53.7754 58.1215C53.4567 58.4105 53.1419 58.7592 52.8707 59.0777C52.6057 59.3889 52.3534 59.706 52.1527 59.9583L52.1296 59.9873C52.0244 60.1195 51.9378 60.228 51.8658 60.3157C51.8599 60.3229 51.8541 60.3298 51.8486 60.3365C51.8621 60.2758 51.8759 60.2142 51.8898 60.152C51.974 59.7741 52.0629 59.376 52.1359 59.0403C52.1783 58.8459 52.2157 58.6706 52.2417 58.5406C52.2541 58.4783 52.2671 58.4111 52.2767 58.3526C52.2806 58.3288 52.2892 58.2753 52.2949 58.214L52.295 58.2132C52.2971 58.1909 52.3047 58.1092 52.3004 58.0069C52.2987 57.9664 52.2926 57.8296 52.2449 57.6626C52.2213 57.5797 52.1664 57.4128 52.0418 57.2319C51.9117 57.0432 51.6477 56.7609 51.2055 56.6448C50.7574 56.5272 50.3806 56.6466 50.1625 56.7585C49.9577 56.8635 49.826 56.9921 49.7646 57.0571C49.641 57.1879 49.5711 57.3116 49.5511 57.347C49.4999 57.438 49.4691 57.516 49.4607 57.5372L49.4604 57.538C49.4374 57.5964 49.4204 57.6496 49.4124 57.675C49.393 57.7366 49.3713 57.8123 49.3489 57.8933C49.3026 58.0608 49.2357 58.3137 49.1448 58.666C49.135 58.7042 49.1249 58.743 49.1146 58.7822ZM51.6831 62.5163C51.6848 62.5209 51.6856 62.5233 51.6856 62.5234C51.6855 62.5235 51.6846 62.5212 51.6831 62.5163ZM55.9227 60.1557C55.9226 60.1558 55.9198 60.1577 55.9142 60.1607C55.9199 60.157 55.9227 60.1555 55.9227 60.1557ZM54.1778 58.818C54.1788 58.8133 54.1795 58.8108 54.1795 58.8108C54.1796 58.8107 54.1791 58.8131 54.1778 58.818ZM48.2829 61.9731C48.2829 61.9729 48.2834 61.9703 48.2842 61.9659C48.2833 61.9711 48.2829 61.9733 48.2829 61.9731Z" fill="#0E0F1E"/>
<path fill-rule="evenodd" clip-rule="evenodd" d="M51.2269 54.7397C51.6113 55.4535 51.3442 56.3438 50.6304 56.7281C50.4831 56.8074 50.2408 57.0541 50.0155 57.5937C49.8023 58.104 49.6821 58.6955 49.6489 59.1613C49.6118 59.6803 49.4489 60.1343 49.3564 60.3918C49.3478 60.4159 49.3397 60.4383 49.3325 60.4589C49.2301 60.749 49.2152 60.8351 49.2152 60.9036C49.2152 61.7144 48.5579 62.3716 47.7472 62.3716C46.9365 62.3716 46.2793 61.7144 46.2793 60.9036C46.2793 60.2884 46.4573 59.784 46.5621 59.4872L46.564 59.4818C46.6861 59.1356 46.7137 59.0457 46.7204 58.9521C46.7729 58.2173 46.9533 57.3075 47.3064 56.4621C47.6473 55.646 48.237 54.6824 49.2385 54.1432C49.9523 53.7588 50.8425 54.0259 51.2269 54.7397Z" fill="#0E0F1E"/>
<path fill-rule="evenodd" clip-rule="evenodd" d="M48.5598 57.108C48.8445 56.3489 49.6906 55.9643 50.4497 56.249C52.0639 56.8543 52.3191 58.4634 52.3845 59.309C52.4148 59.7006 52.416 60.1156 52.417 60.4544C52.4172 60.5247 52.4174 60.5918 52.4178 60.6546C52.4208 61.0727 52.4344 61.3267 52.4673 61.4912C52.6263 62.2862 52.1107 63.0595 51.3158 63.2185C50.5208 63.3775 49.7474 62.862 49.5884 62.067C49.4933 61.5913 49.4848 61.0728 49.482 60.6754C49.4814 60.5874 49.4811 60.5032 49.4808 60.4221C49.4795 60.0886 49.4784 59.8079 49.4574 59.5353C49.4314 59.199 49.3861 59.04 49.3579 58.9735C48.6394 58.6674 48.2829 57.8465 48.5598 57.108ZM49.3332 58.9325C49.334 58.9307 49.3405 58.937 49.3503 58.9569C49.3373 58.9443 49.3324 58.9343 49.3332 58.9325Z" fill="#0E0F1E"/>
<path fill-rule="evenodd" clip-rule="evenodd" d="M59.9867 64.0606C60.5745 64.619 60.5983 65.5481 60.04 66.1359C58.5709 67.6823 57.1101 68.7396 55.2597 69.7463C54.8617 69.9628 54.4103 70.1754 54.0047 70.3663C53.8497 70.4393 53.7013 70.5091 53.5653 70.5748C53.0254 70.8354 52.5929 71.0685 52.2577 71.3198C51.6091 71.8063 50.689 71.6748 50.2026 71.0262C49.7161 70.3777 49.8476 69.4576 50.4962 68.9711C51.0717 68.5395 51.7205 68.2053 52.2889 67.9309C52.4854 67.8361 52.6682 67.75 52.8414 67.6685C53.2116 67.4944 53.5375 67.341 53.8566 67.1674C55.4828 66.2827 56.6863 65.4034 57.9114 64.1138C58.4698 63.526 59.399 63.5022 59.9867 64.0606Z" fill="#0E0F1E"/>
<path fill-rule="evenodd" clip-rule="evenodd" d="M54.8675 60.2989C55.2846 59.6037 56.1863 59.3783 56.8815 59.7954C57.3382 60.0695 57.5804 60.4732 57.7047 60.7291C57.8372 61.0019 57.9183 61.2811 57.9713 61.4934C58.0198 61.6874 58.0585 61.8845 58.0869 62.0288C58.0901 62.0451 58.0932 62.0607 58.0961 62.0755C58.112 62.156 58.1241 62.2155 58.1351 62.2643C58.1423 62.2964 58.1469 62.3141 58.1488 62.321C58.1512 62.3273 58.1573 62.3431 58.1692 62.3714C58.1877 62.4156 58.2096 62.4653 58.2396 62.5337L58.2486 62.5542C58.3119 62.6983 58.4036 62.9074 58.4828 63.129C58.5591 63.3428 58.6506 63.6399 58.6827 63.9657C58.7133 64.2767 58.7084 64.7995 58.3863 65.3006C57.9868 65.922 57.4239 66.3962 56.9825 66.739C56.7625 66.91 56.5823 67.0428 56.4233 67.16C56.1976 67.3263 56.0147 67.4612 55.8212 67.6289L55.8207 67.6293C55.8149 67.6343 55.7949 67.6514 55.7248 67.7542C55.7157 67.7675 55.7036 67.7857 55.689 67.8078C55.6164 67.9172 55.4802 68.1224 55.3277 68.3069C54.4182 69.4067 53.6046 70.4004 52.8698 71.5026C52.4201 72.1772 51.5087 72.3594 50.8341 71.9097C50.1596 71.46 49.9773 70.5486 50.427 69.8741C51.257 68.6291 52.1632 67.5266 53.0651 66.4359C53.1115 66.3799 53.1379 66.3403 53.1936 66.2568C53.2204 66.2168 53.2539 66.1665 53.2996 66.0995C53.4225 65.9194 53.6092 65.6608 53.8984 65.4102C54.1634 65.1806 54.5227 64.9135 54.8212 64.6916C54.9594 64.5888 55.0846 64.4958 55.1813 64.4206C55.3901 64.2584 55.5511 64.1203 55.6735 63.9998C55.6416 63.9205 55.6041 63.834 55.5605 63.7346C55.5573 63.7273 55.554 63.7198 55.5506 63.7121C55.5228 63.6489 55.4905 63.5754 55.4618 63.5069C55.4308 63.433 55.3895 63.331 55.3547 63.2229C55.291 63.0253 55.2464 62.7992 55.2186 62.6584C55.2177 62.6537 55.2168 62.6491 55.2159 62.6446C55.213 62.6302 55.2103 62.6161 55.2075 62.6022C55.1768 62.4466 55.1524 62.3228 55.1229 62.2048C55.1126 62.1632 55.1029 62.1279 55.0939 62.0983C54.6232 61.6336 54.5121 60.8913 54.8675 60.2989Z" fill="#0E0F1E"/>
</svg>
